<svg width="25" height="22" viewBox="0 0 25 22" fill="none" xmlns="http://www.w3.org/2000/svg">
<path d="M22.4393 16.7866L22.4918 17.7853C23.1458 17.7508 23.6541 17.2266 23.6541 16.5982V3.51805C23.6545 2.83237 23.0598 2.28917 22.3466 2.32943M22.4393 16.7866C22.5885 16.7787 22.6541 16.6686 22.6541 16.5982V3.51805V3.51748C22.6542 3.44293 22.5795 3.31802 22.4033 3.32783L22.3466 2.32943M22.4393 16.7866C20.6418 16.8811 16.9536 17.2123 14.1231 18.4513V19.0796C14.1231 18.9123 14.0246 18.7812 13.9202 18.7208C13.8182 18.6617 13.6862 18.6526 13.5749 18.7086M22.3466 2.32943L22.403 3.32784L14.0244 19.6019C13.6121 19.8094 13.1231 19.5267 13.1231 19.0796V4.99161C13.1231 4.78719 13.2249 4.59167 13.4046 4.48171C16.0079 2.88812 20.2249 2.44984 22.3466 2.32943Z" stroke="#1E1C1C" stroke-width="2"/>
</svg>
