<svg width="24" height="24" viewBox="0 0 24 24" fill="none" xmlns="http://www.w3.org/2000/svg">
<path d="M17.8978 15.1361L17.8977 15.1361L14.7376 12L17.9025 8.86879L17.9026 8.86872C18.1377 8.63363 18.1377 8.25346 17.9026 8.01838L15.9865 6.10225C15.7514 5.86716 15.3712 5.86716 15.1361 6.10225L15.1361 6.1023L12 9.26243L8.86879 6.09748L8.86872 6.09741C8.63363 5.86232 8.25346 5.86232 8.01838 6.09741L6.10225 8.01354C5.86716 8.24862 5.86716 8.6288 6.10225 8.86388L6.1023 8.86393L9.26244 12L6.10231 15.1312L6.10225 15.1313C5.86716 15.3664 5.86716 15.7465 6.10225 15.9816L8.01352 17.8977L8.01354 17.8978C8.24862 18.1328 8.6288 18.1328 8.86388 17.8978L8.86393 17.8977L12 14.7376L15.1312 17.8977L15.1313 17.8978C15.3664 18.1328 15.7465 18.1328 15.9816 17.8978L17.8977 15.9865L17.8978 15.9865C18.1328 15.7514 18.1328 15.3712 17.8978 15.1361ZM0.0196313 12C0.0196313 5.38181 5.38181 0.0196313 12 0.0196313C18.6182 0.0196313 23.9804 5.38181 23.9804 12C23.9804 18.6182 18.6182 23.9804 12 23.9804C5.38181 23.9804 0.0196313 18.6182 0.0196313 12Z" fill="#6420DF" stroke="#6420DF" stroke-width="0.0392626"/>
</svg>
