<svg width="15" height="15" viewBox="0 0 15 15" fill="none" xmlns="http://www.w3.org/2000/svg">
<path d="M11.1913 9.45487L11.1912 9.45482L9.22144 7.50002L11.1943 5.54823L11.1943 5.54816C11.3441 5.39835 11.3441 5.15608 11.1943 5.00628L9.99674 3.8087C9.84694 3.6589 9.60467 3.6589 9.45487 3.8087L9.45482 3.80875L7.50002 5.77856L5.54823 3.80575L5.54816 3.80568C5.39835 3.65587 5.15608 3.65587 5.00628 3.80568L3.8087 5.00326C3.6589 5.15306 3.6589 5.39533 3.8087 5.54513L3.80875 5.54518L5.77857 7.49999L3.80876 9.45178L3.8087 9.45184C3.6589 9.60165 3.6589 9.84392 3.8087 9.99372L5.00324 11.1913L5.00326 11.1913C5.15306 11.3411 5.39533 11.3411 5.54513 11.1913L5.54518 11.1912L7.49999 9.22143L9.45178 11.1912L9.45184 11.1913C9.60165 11.3411 9.84392 11.3411 9.99372 11.1913L11.1913 9.99676L11.1913 9.99674C11.3411 9.84694 11.3411 9.60467 11.1913 9.45487ZM0.0196313 7.5C0.0196313 3.3677 3.3677 0.0196313 7.5 0.0196313C11.6323 0.0196313 14.9804 3.3677 14.9804 7.5C14.9804 11.6323 11.6323 14.9804 7.5 14.9804C3.3677 14.9804 0.0196313 11.6323 0.0196313 7.5Z" fill="#FCFCFC" stroke="#FCFCFC" stroke-width="0.0392626"/>
</svg>
