<svg width="26" height="26" viewBox="0 0 26 26" fill="none" xmlns="http://www.w3.org/2000/svg">
<circle cx="13" cy="13" r="13" fill="#FCFCFC"/>
<path fill-rule="evenodd" clip-rule="evenodd" d="M13 2.73611C13.6903 2.73611 14.25 3.29576 14.25 3.98611V4.98766C14.25 5.67801 13.6903 6.23766 13 6.23766C12.3096 6.23766 11.7499 5.67801 11.7499 4.98766V3.98611C11.7499 3.29576 12.3096 2.73611 13 2.73611ZM5.70621 5.70624C6.19436 5.21808 6.98582 5.21808 7.47397 5.70624L8.17505 6.40732C8.66321 6.89547 8.66321 7.68693 8.17505 8.17508C7.6869 8.66324 6.89544 8.66324 6.40728 8.17508L5.70621 7.474C5.21805 6.98585 5.21805 6.19439 5.70621 5.70624ZM20.2937 5.70624C20.7818 6.19439 20.7818 6.98585 20.2937 7.474L19.5926 8.17508C19.1045 8.66324 18.313 8.66324 17.8249 8.17508C17.3367 7.68693 17.3367 6.89547 17.8248 6.40732L18.5259 5.70624C19.0141 5.21808 19.8055 5.21808 20.2937 5.70624ZM13 9.24228C12.2113 9.24228 11.4426 9.49043 10.8028 9.95157C10.163 10.4127 9.68448 11.0635 9.43508 11.8117C9.18568 12.5599 9.17801 13.3676 9.41317 14.1204C9.64833 14.8732 10.1144 15.5329 10.7453 16.0061C10.791 16.0404 10.8342 16.0777 10.8747 16.1178C11.0743 16.3154 11.2554 16.5296 11.4161 16.7577H14.5838C14.7445 16.5296 14.9256 16.3154 15.1252 16.1178C15.1657 16.0777 15.2089 16.0404 15.2546 16.0061C15.8855 15.5329 16.3516 14.8732 16.5867 14.1204C16.8219 13.3676 16.8142 12.5599 16.5648 11.8117C16.3154 11.0635 15.8369 10.4127 15.1971 9.95157C14.5573 9.49043 13.7886 9.24228 13 9.24228ZM16.3913 18.6239C16.4224 18.569 16.4496 18.5115 16.4723 18.4518C16.5686 18.2676 16.6902 18.0972 16.8339 17.9457C17.8443 17.1624 18.5913 16.0877 18.973 14.8658C19.3646 13.6122 19.3519 12.2671 18.9365 11.0211C18.5212 9.77514 17.7244 8.69142 16.6589 7.92347C15.5934 7.15552 14.3133 6.74228 12.9999 6.74228C11.6866 6.74228 10.4065 7.15552 9.34101 7.92347C8.27553 8.69142 7.4787 9.77514 7.06337 11.0211C6.64804 12.2671 6.63528 13.6122 7.02689 14.8658C7.40858 16.0877 8.15555 17.1624 9.16601 17.9457C9.3095 18.097 9.43098 18.2672 9.5273 18.4511C9.55013 18.5113 9.57747 18.5692 9.6089 18.6245C9.63088 18.6769 9.6509 18.7301 9.66892 18.7842C9.78087 19.12 9.81219 19.4775 9.76035 19.8277C9.75137 19.8883 9.74687 19.9495 9.74687 20.0108C9.74687 20.8735 10.0896 21.701 10.6997 22.311C11.3097 22.9211 12.1372 23.2638 13 23.2638C13.8627 23.2638 14.6902 22.9211 15.3002 22.311C15.9103 21.701 16.253 20.8735 16.253 20.0108C16.253 19.9495 16.2485 19.8883 16.2396 19.8277C16.1877 19.4775 16.219 19.12 16.331 18.7842C16.3491 18.7299 16.3692 18.6764 16.3913 18.6239ZM13.7213 19.2577H12.2786C12.2923 19.5295 12.2827 19.8027 12.2495 20.0742C12.2645 20.2507 12.3413 20.4171 12.4674 20.5433C12.6087 20.6845 12.8002 20.7638 13 20.7638C13.1997 20.7638 13.3912 20.6845 13.5325 20.5433C13.6587 20.4171 13.7354 20.2507 13.7504 20.0742C13.7172 19.8027 13.7076 19.5295 13.7213 19.2577ZM2.73608 13C2.73608 12.3096 3.29573 11.75 3.98608 11.75H4.98762C5.67798 11.75 6.23762 12.3096 6.23762 13C6.23762 13.6903 5.67798 14.25 4.98762 14.25H3.98608C3.29573 14.25 2.73608 13.6903 2.73608 13ZM19.7623 13C19.7623 12.3096 20.3219 11.75 21.0123 11.75H22.0138C22.7042 11.75 23.2638 12.3096 23.2638 13C23.2638 13.6903 22.7042 14.25 22.0138 14.25H21.0123C20.3219 14.25 19.7623 13.6903 19.7623 13Z" fill="#2399F3"/>
</svg>
