<svg width="24" height="24" viewBox="0 0 24 24" fill="none" xmlns="http://www.w3.org/2000/svg">
<circle cx="12" cy="12" r="12" fill="#2399F3"/>
<path fill-rule="evenodd" clip-rule="evenodd" d="M12 2.4295C12.6904 2.4295 13.25 2.98915 13.25 3.6795V4.604C13.25 5.29436 12.6904 5.854 12 5.854C11.3096 5.854 10.75 5.29436 10.75 4.604V3.6795C10.75 2.98915 11.3096 2.4295 12 2.4295ZM5.19932 5.19932C5.68747 4.71116 6.47893 4.71116 6.96709 5.19932L7.61424 5.84647C8.10239 6.33462 8.10239 7.12608 7.61424 7.61424C7.12608 8.10239 6.33462 8.10239 5.84647 7.61424L5.19932 6.96709C4.71116 6.47893 4.71116 5.68747 5.19932 5.19932ZM18.8007 5.19932C19.2888 5.68747 19.2888 6.47893 18.8007 6.96708L18.1535 7.61423C17.6654 8.10239 16.8739 8.10239 16.3858 7.61424C15.8976 7.12608 15.8976 6.33463 16.3858 5.84647L17.0329 5.19932C17.5211 4.71116 18.3125 4.71116 18.8007 5.19932ZM12 8.6275C11.2922 8.6275 10.6023 8.85021 10.0281 9.26409C9.45384 9.67796 9.0244 10.262 8.80057 10.9335C8.57673 11.605 8.56985 12.3299 8.7809 13.0056C8.99196 13.6812 9.41024 14.2733 9.9765 14.698C10.0221 14.7322 10.0653 14.7695 10.1059 14.8096C10.2822 14.9842 10.4432 15.1725 10.5875 15.3725H13.4125C13.5568 15.1725 13.7178 14.9842 13.8941 14.8096C13.9346 14.7695 13.9779 14.7322 14.0235 14.698C14.5898 14.2733 15.008 13.6812 15.2191 13.0056C15.4301 12.3299 15.4233 11.605 15.1994 10.9335C14.9756 10.262 14.5462 9.67796 13.9719 9.26409C13.3977 8.85021 12.7078 8.6275 12 8.6275ZM15.2169 17.2338C15.246 17.182 15.2715 17.1279 15.2931 17.0719C15.3764 16.9138 15.4808 16.7673 15.6038 16.6367C16.5491 15.902 17.2479 14.8953 17.6054 13.751C17.9729 12.5745 17.9609 11.3122 17.5711 10.143C17.1814 8.97367 16.4336 7.95666 15.4337 7.23598C14.4338 6.51531 13.2325 6.1275 12 6.1275C10.7675 6.1275 9.56617 6.51531 8.56629 7.23598C7.5664 7.95666 6.81862 8.97367 6.42886 10.143C6.0391 11.3122 6.02712 12.5745 6.39462 13.751C6.75207 14.8953 7.4509 15.902 8.39617 16.6367C8.519 16.7672 8.62334 16.9134 8.70658 17.0713C8.72831 17.1277 8.75402 17.1822 8.78336 17.2344C8.80183 17.2788 8.81873 17.3239 8.83398 17.3697C8.93255 17.6654 8.96012 17.9801 8.91448 18.2884C8.9055 18.349 8.901 18.4102 8.901 18.4715C8.901 19.2934 9.2275 20.0816 9.80867 20.6628C10.3898 21.244 11.1781 21.5705 12 21.5705C12.8219 21.5705 13.6101 21.244 14.1913 20.6628C14.7725 20.0816 15.099 19.2934 15.099 18.4715C15.099 18.4102 15.0945 18.349 15.0855 18.2884C15.0399 17.9801 15.0674 17.6654 15.166 17.3697C15.1813 17.3237 15.1983 17.2784 15.2169 17.2338ZM12.5659 17.8725H11.4341C11.4403 18.0921 11.4303 18.3123 11.404 18.5315C11.4178 18.6683 11.4783 18.7969 11.5764 18.895C11.6888 19.0074 11.8411 19.0705 12 19.0705C12.1589 19.0705 12.3112 19.0074 12.4236 18.895C12.5217 18.7969 12.5822 18.6683 12.596 18.5315C12.5697 18.3123 12.5597 18.0921 12.5659 17.8725ZM2.4295 12C2.4295 11.3096 2.98915 10.75 3.6795 10.75H4.604C5.29436 10.75 5.854 11.3096 5.854 12C5.854 12.6904 5.29436 13.25 4.604 13.25H3.6795C2.98915 13.25 2.4295 12.6904 2.4295 12ZM18.146 12C18.146 11.3096 18.7056 10.75 19.396 10.75H20.3205C21.0108 10.75 21.5705 11.3096 21.5705 12C21.5705 12.6904 21.0108 13.25 20.3205 13.25H19.396C18.7056 13.25 18.146 12.6904 18.146 12Z" fill="white"/>
</svg>
