<svg width="23" height="26" viewBox="0 0 23 26" fill="none" xmlns="http://www.w3.org/2000/svg">
<path d="M12.9466 6.04706C13.672 9.18885 11.6936 11.7358 8.52776 11.7358C5.36196 11.7358 2.20756 9.18885 1.48222 6.04706C0.756878 2.90526 2.73527 0.358337 5.90108 0.358337C9.06688 0.358337 12.2213 2.90526 12.9466 6.04706Z" fill="black"/>
<path d="M1.01459 22.0789C-0.172334 16.9378 3.06503 12.7701 8.24544 12.7701H10.3299C15.5103 12.7701 20.672 16.9378 21.859 22.0789L22.3365 24.1475C22.4684 24.7188 22.1087 25.1818 21.5331 25.1818H2.77317C2.19757 25.1818 1.62405 24.7188 1.49217 24.1475L1.01459 22.0789Z" fill="black"/>
</svg>
