<svg width="35" height="35" viewBox="0 0 35 35" fill="none" xmlns="http://www.w3.org/2000/svg">
<path d="M1.5 6C1.5 3.51472 3.51472 1.5 6 1.5H33.5V33.5H6C3.51472 33.5 1.5 31.4853 1.5 29V6Z" fill="#D6FF01"/>
<path d="M1.5 6C1.5 3.51472 3.51472 1.5 6 1.5H33.5V33.5H6C3.51472 33.5 1.5 31.4853 1.5 29V6Z" stroke="black" stroke-width="3"/>
<path d="M11.3012 16.8226L11.3012 16.8227C11.1493 17.011 11.0714 17.2553 11.0714 17.5C11.0714 17.7447 11.1493 17.9889 11.3012 18.1773L11.3012 18.1773L14.4765 22.1139L14.7063 22.3988L14.9361 22.1139L15.7298 21.1299L15.8793 20.9446L15.7298 20.7592L13.1009 17.5L15.7298 14.2407L15.8793 14.0554L15.7298 13.87L14.9361 12.8861L14.7063 12.6012L14.4765 12.8861L11.3012 16.8226Z" fill="black" stroke="black" stroke-width="0.590476"/>
<path d="M19.4345 16.8226L19.4345 16.8227C19.2826 17.011 19.2047 17.2553 19.2047 17.5C19.2047 17.7447 19.2826 17.9889 19.4345 18.1773L19.4345 18.1773L22.6098 22.1139L22.8396 22.3988L23.0694 22.1139L23.8631 21.1299L24.0126 20.9446L23.8631 20.7592L21.2342 17.5L23.8631 14.2407L24.0126 14.0554L23.8631 13.87L23.0694 12.8861L22.8396 12.6012L22.6098 12.8861L19.4345 16.8226Z" fill="black" stroke="black" stroke-width="0.590476"/>
</svg>
