<svg width="15" height="11" viewBox="0 0 15 11" fill="none" xmlns="http://www.w3.org/2000/svg">
<path d="M1.30121 4.82267L1.30118 4.82271C1.1493 5.01106 1.07143 5.2553 1.07143 5.50002C1.07143 5.74474 1.1493 5.98897 1.30118 6.17733L1.30121 6.17736L4.47652 10.1139L4.70631 10.3988L4.93611 10.1139L5.7298 9.12998L5.87931 8.94462L5.7298 8.75926L3.10085 5.50002L5.7298 2.24078L5.87931 2.05542L5.7298 1.87006L4.93611 0.886086L4.70631 0.601193L4.47652 0.886086L1.30121 4.82267Z" fill="black" stroke="black" stroke-width="0.590476"/>
<path d="M9.43454 4.82267L9.43451 4.82271C9.28263 5.01106 9.20476 5.2553 9.20476 5.50002C9.20476 5.74474 9.28263 5.98897 9.43451 6.17733L9.43454 6.17736L12.6098 10.1139L12.8396 10.3988L13.0694 10.1139L13.8631 9.12998L14.0126 8.94462L13.8631 8.75926L11.2342 5.50002L13.8631 2.24078L14.0126 2.05542L13.8631 1.87006L13.0694 0.886086L12.8396 0.601193L12.6098 0.886086L9.43454 4.82267Z" fill="black" stroke="black" stroke-width="0.590476"/>
</svg>
