<svg width="24" height="22" viewBox="0 0 24 22" fill="none" xmlns="http://www.w3.org/2000/svg">
<path d="M8.98771 13.7674L9 13.7819L9.01229 13.7674L20.2668 0.426969C20.4982 0.15262 20.8009 0.0160825 21.103 0.0160825C21.4051 0.0160825 21.7078 0.15262 21.9392 0.426969L23.6362 2.43858C24.0998 2.98806 24.0998 3.87992 23.6362 4.42945L9.83624 20.7873C9.60476 21.0617 9.30204 21.1982 8.99998 21.1982C8.69792 21.1982 8.39521 21.0616 8.16376 20.7873L0.36375 11.5415C-0.0998064 10.9921 -0.0998071 10.1002 0.36375 9.55067L2.06077 7.53906C2.29222 7.26468 2.59494 7.12813 2.89701 7.12813C3.19908 7.12813 3.50179 7.26468 3.73325 7.53906L8.98771 13.7674Z" fill="black" stroke="black" stroke-width="0.0321649"/>
</svg>
