<svg width="24" height="26" viewBox="0 0 24 26" fill="none" xmlns="http://www.w3.org/2000/svg">
    <path d="M16.079 22.8577C15.7113 24.0809 14.4308 24.5453 13.2189 23.8949C12.0071 23.2445 11.3227 21.7256 11.6904 20.5023C12.0581 19.2791 13.3386 18.8147 14.5505 19.4651C15.7624 20.1156 16.4468 21.6344 16.079 22.8577Z" fill="#D6FF01"/>
    <path d="M2.4516 10.5403C1.14342 5.6475 2.8053 0.358337 7.40635 0.358337C12.1521 0.358337 17.1399 5.49617 17.5456 10.5403C17.7293 12.8244 18.8674 14.7409 19.7502 16.6636C20.6203 18.5587 24.0098 21.6806 24.0098 21.6806L3.75956 21.6806C3.75956 21.6806 4.55459 19.1581 4.67304 17.2907C4.80397 15.2264 3.0991 12.962 2.4516 10.5403Z" fill="#D6FF01"/>
</svg>
